<?xml version="1.0" encoding="iso-8859-1"?>
<!DOCTYPE svg PUBLIC "-//W3C//DTD SVG 1.1//EN" "http://www.w3.org/Graphics/SVG/1.1/DTD/svg11.dtd">
<svg 
 version="1.1" xmlns="http://www.w3.org/2000/svg" xmlns:xlink="http://www.w3.org/1999/xlink" x="0px" y="0px" width="512px"
	 height="512px" viewBox="0 0 512 512" enable-background="new 0 0 512 512" xml:space="preserve"
><g id="2069a460dcf28295e231f3111e0446ef"><g></g><g fill="#e2ddeb"><path display="inline" d="M256,0.5C114.893,0.5,0.5,114.893,0.5,256S114.893,511.5,256,511.5S511.5,397.107,511.5,256
		S397.107,0.5,256,0.5z M256,468.917c-117.404,0-212.917-95.514-212.917-212.917c0-117.404,95.513-212.917,212.917-212.917
		c117.403,0,212.917,95.513,212.917,212.917C468.917,373.403,373.403,468.917,256,468.917z M106.958,213.417
		c0-29.396,23.833-53.229,53.229-53.229s53.229,23.833,53.229,53.229c0,29.397-23.833,53.229-53.229,53.229
		S106.958,242.813,106.958,213.417z M405.042,213.417c0,29.397-23.833,53.229-53.229,53.229s-53.229-23.832-53.229-53.229
		c0-29.396,23.833-53.229,53.229-53.229S405.042,184.02,405.042,213.417z M405.042,319.875c0,39.689-78.488,106.458-149.042,106.458
		s-149.042-66.769-149.042-106.458S185.446,341.167,256,341.167S405.042,280.186,405.042,319.875z"></path></g></g></svg>