<?xml version="1.0" encoding="iso-8859-1"?>
<!DOCTYPE svg PUBLIC "-//W3C//DTD SVG 1.1//EN" "http://www.w3.org/Graphics/SVG/1.1/DTD/svg11.dtd">
<svg 
 version="1.1" xmlns="http://www.w3.org/2000/svg" xmlns:xlink="http://www.w3.org/1999/xlink" x="0px" y="0px" width="512px"
	 height="512px" viewBox="0 0 512 512" style="enable-background:new 0 0 512 512;" xml:space="preserve"
><g id="afcae5a789ccd549f9c6e2a2f819acbd"><g></g><g fill="#ffb2bc"><path style="display: inline;" d="M438.5,183C438.5,82.208,356.792,0.5,256,0.5S73.5,82.208,73.5,183
		c0,94.633,72.027,172.431,164.25,181.588V402h-109.5v36.5h109.5v73h36.5v-73h109.5V402h-109.5v-37.412
		C366.473,355.431,438.5,277.633,438.5,183z M110,183c0-80.505,65.497-146,146-146s146,65.495,146,146c0,80.503-65.497,146-146,146
		S110,263.503,110,183z"></path></g></g></svg>