<svg id="Layer_1" data-name="Layer 1" xmlns="http://www.w3.org/2000/svg" viewBox="0 0 40.37 38.2"><defs><style>.cls-1{fill:#80d6ff;}.cls-2{fill:gray;}.cls-3{fill:none;stroke:#666;stroke-miterlimit:10;stroke-width:0.94px;}.cls-4{fill:#666;}</style></defs><title>paint bucket icon</title><path class="cls-1" d="M2358.26,135s-2.47,2.61-2.34,4.68a2.65,2.65,0,0,0,2.34,2.34,2.55,2.55,0,0,0,2.34-2.34C2360.82,137.68,2358.26,135,2358.26,135Z" transform="translate(-2320.25 -112.45)"/><path class="cls-1" d="M2357.91,130c0.22-.22.15-0.44-0.16-0.48l-28.67-4.1a1.28,1.28,0,0,0-1,.32l-7.71,7.71a0.57,0.57,0,0,0,0,.8l16.22,16.22a0.57,0.57,0,0,0,.8,0Z" transform="translate(-2320.25 -112.45)"/><path class="cls-2" d="M2341.29,114.71l14.9,14.9L2337,148.76l-14.9-14.9,19.15-19.15m0-1.89a0.57,0.57,0,0,0-.4.17l-20.48,20.48a0.57,0.57,0,0,0,0,.8l16.22,16.22a0.57,0.57,0,0,0,.8,0L2357.91,130a0.57,0.57,0,0,0,0-.8L2341.69,113a0.57,0.57,0,0,0-.4-0.17h0Z" transform="translate(-2320.25 -112.45)"/><line class="cls-3" x1="12.33" y1="0.33" x2="20.85" y2="8.84"/><circle class="cls-4" cx="2341.09" cy="121.29" r="1.5" transform="translate(-1720.32 1578.48) rotate(-45)"/></svg>