<svg id="Layer_1" data-name="Layer 1" xmlns="http://www.w3.org/2000/svg" viewBox="0 0 42.94 43.1"><defs><style>.cls-1{fill:#50a9cc;}.cls-2{fill:#ccc;}</style></defs><title>pen icon</title><path class="cls-1" d="M2343.15,175.94a1.05,1.05,0,0,0-1.49,0l-5.3,5.3a1.05,1.05,0,0,0,0,1.49l5.3,5.3,1.49,1.49,12.09,12.09a1.05,1.05,0,0,0,1.49,0l5.3-5.3a1.05,1.05,0,0,0,0-1.49Z" transform="translate(-2319.39 -175.63)"/><path class="cls-2" d="M2338.72,187.23l11.85,11.85a0.54,0.54,0,0,1,.08.63l-6.14,10.23a1.32,1.32,0,0,1-.58.48l-22.6,8.28c-0.21.08-.25,0-0.09-0.15l15.24-15.24a0.43,0.43,0,0,0,0-.58l-0.85-.94a0.38,0.38,0,0,0-.55,0l-15.52,15.52c-0.16.16-.22,0.11-0.15-0.09l9-24.43" transform="translate(-2319.39 -175.63)"/></svg>