<svg id="Layer_1" data-name="Layer 1" xmlns="http://www.w3.org/2000/svg" viewBox="0 0 26.56 26.56"><defs><style>.cls-1{fill:#fff;}</style></defs><title>tools icon</title><path class="cls-1" d="M2270.49,524.59a8.73,8.73,0,0,0,12.32,0,9,9,0,0,0,2.07-9l-6,6-4.45-.94-0.94-4.45,6-6a9,9,0,0,0-9,2.07A8.72,8.72,0,0,0,2270.49,524.59Z" transform="translate(-2258.75 -509.77)"/><path class="cls-1" d="M2260.68,535.88a1.56,1.56,0,0,0,2.19,0L2273,525.79a1.56,1.56,0,0,0,0-2.19l-1.47-1.47a1.56,1.56,0,0,0-2.19,0l-10.09,10.09a1.56,1.56,0,0,0,0,2.19Zm1.72-3.19a1.11,1.11,0,1,1-1.56,0A1.11,1.11,0,0,1,2262.4,532.68Z" transform="translate(-2258.75 -509.77)"/></svg>