<svg id="Layer_1" data-name="Layer 1" xmlns="http://www.w3.org/2000/svg" viewBox="0 0 42.6 42.6"><defs><style>.cls-1{fill:#cb2128;}</style></defs><title>pinteresticon</title><path id="pinterest-circle-icon" class="cls-1" d="M2435.25,2084.74a21.3,21.3,0,1,0,21.3,21.3A21.3,21.3,0,0,0,2435.25,2084.74ZM2438,2113a4.42,4.42,0,0,1-3.77-1.92s-0.9,3.55-1.08,4.24a16.43,16.43,0,0,1-2.78,5,0.2,0.2,0,0,1-.37-0.09,17.27,17.27,0,0,1,0-5.86l2-8.4a5.93,5.93,0,0,1-.49-2.44c0-2.28,1.32-4,3-4a2.06,2.06,0,0,1,2.08,2.31c0,1.41-.9,3.52-1.36,5.47a2.39,2.39,0,0,0,2.43,3c2.92,0,4.89-3.75,4.89-8.2,0-3.38-2.27-5.91-6.41-5.91a7.3,7.3,0,0,0-7.59,7.38,4.45,4.45,0,0,0,1,3,0.75,0.75,0,0,1,.22.86c-0.08.28-.24,1-0.31,1.24a0.53,0.53,0,0,1-.77.39c-2.15-.88-3.16-3.24-3.16-5.89,0-4.38,3.69-9.63,11-9.63,5.89,0,9.76,4.26,9.76,8.83C2446.36,2108.53,2443,2113,2438,2113Z" transform="translate(-2413.95 -2084.74)"/></svg>