<?xml version="1.0" encoding="utf-8"?>
<!-- Generator: Adobe Illustrator 16.0.0, SVG Export Plug-In . SVG Version: 6.00 Build 0)  -->
<!DOCTYPE svg PUBLIC "-//W3C//DTD SVG 1.1//EN" "http://www.w3.org/Graphics/SVG/1.1/DTD/svg11.dtd">
<svg version="1.1" xmlns="http://www.w3.org/2000/svg" xmlns:xlink="http://www.w3.org/1999/xlink" x="0px" y="0px" width="300px"
	 height="300px" viewBox="0 0 300 300" enable-background="new 0 0 300 300" xml:space="preserve">
<g id="Layer_1">
	<g>
		<linearGradient id="SVGID_1_" gradientUnits="userSpaceOnUse" x1="39.623" y1="204.6699" x2="147.9604" y2="204.6699">
			<stop  offset="0" style="stop-color:#F6A82A"/>
			<stop  offset="0.0069" style="stop-color:#F6A927"/>
			<stop  offset="0.0995" style="stop-color:#F7AF00"/>
			<stop  offset="0.1949" style="stop-color:#F7B200"/>
			<stop  offset="0.2965" style="stop-color:#F7B300"/>
			<stop  offset="0.6055" style="stop-color:#F3A432"/>
			<stop  offset="1" style="stop-color:#F1942E"/>
		</linearGradient>
		<linearGradient id="SVGID_2_" gradientUnits="userSpaceOnUse" x1="38.9048" y1="204.7051" x2="148.5898" y2="204.7051">
			<stop  offset="0" style="stop-color:#F6A82A"/>
			<stop  offset="0.0578" style="stop-color:#F6AB19"/>
			<stop  offset="0.1561" style="stop-color:#F6AE00"/>
			<stop  offset="0.261" style="stop-color:#F7AF00"/>
			<stop  offset="0.6055" style="stop-color:#F3A432"/>
			<stop  offset="1" style="stop-color:#F1942E"/>
		</linearGradient>
		<polygon fill="url(#SVGID_1_)" stroke="url(#SVGID_2_)" stroke-miterlimit="10" points="58.354,176.455 39.623,232.885 
			147.96,221.683 136.704,178.157 		"/>
		<linearGradient id="SVGID_3_" gradientUnits="userSpaceOnUse" x1="140.1064" y1="149.6387" x2="234.3877" y2="149.6387">
			<stop  offset="0" style="stop-color:#F6A82A"/>
			<stop  offset="0.0069" style="stop-color:#F6A927"/>
			<stop  offset="0.0995" style="stop-color:#F7AF00"/>
			<stop  offset="0.1949" style="stop-color:#F7B200"/>
			<stop  offset="0.2965" style="stop-color:#F7B300"/>
			<stop  offset="0.6055" style="stop-color:#F3A432"/>
			<stop  offset="1" style="stop-color:#F1942E"/>
		</linearGradient>
		<linearGradient id="SVGID_4_" gradientUnits="userSpaceOnUse" x1="139.5786" y1="149.623" x2="234.9668" y2="149.623">
			<stop  offset="0" style="stop-color:#F6A82A"/>
			<stop  offset="0.0578" style="stop-color:#F6AB19"/>
			<stop  offset="0.1561" style="stop-color:#F6AE00"/>
			<stop  offset="0.261" style="stop-color:#F7AF00"/>
			<stop  offset="0.6055" style="stop-color:#F3A432"/>
			<stop  offset="1" style="stop-color:#F1942E"/>
		</linearGradient>
		<polygon fill="url(#SVGID_3_)" stroke="url(#SVGID_4_)" stroke-miterlimit="10" points="140.106,133.957 142.207,168.985 
			227.581,175.293 234.388,123.984 		"/>
		<linearGradient id="SVGID_5_" gradientUnits="userSpaceOnUse" x1="5.5439" y1="183.3779" x2="297.2139" y2="183.3779">
			<stop  offset="0" style="stop-color:#F6A82A"/>
			<stop  offset="0.0069" style="stop-color:#F6A927"/>
			<stop  offset="0.0995" style="stop-color:#F7AF00"/>
			<stop  offset="0.1949" style="stop-color:#F7B200"/>
			<stop  offset="0.2965" style="stop-color:#F7B300"/>
			<stop  offset="0.6055" style="stop-color:#F3A432"/>
			<stop  offset="1" style="stop-color:#F1942E"/>
		</linearGradient>
		<linearGradient id="SVGID_6_" gradientUnits="userSpaceOnUse" x1="4.7207" y1="183.4268" x2="298.1758" y2="183.4268">
			<stop  offset="0" style="stop-color:#F6A82A"/>
			<stop  offset="0.0578" style="stop-color:#F6AB19"/>
			<stop  offset="0.1561" style="stop-color:#F6AE00"/>
			<stop  offset="0.261" style="stop-color:#F7AF00"/>
			<stop  offset="0.6055" style="stop-color:#F3A432"/>
			<stop  offset="1" style="stop-color:#F1942E"/>
		</linearGradient>
		<path fill="url(#SVGID_5_)" stroke="url(#SVGID_6_)" stroke-miterlimit="10" d="M245.851,170.819l6.338-62.018l-110.898,9.738
			l-100.892-8.255l2.751,60.536L5.544,254.283l143.084-18.343l148.586,22.015L245.851,170.819z M58.742,175.406l-0.271-2.207
			l77.316-2.38l2.822-36.696l-0.07,0.008l-78.482-1.708l-5.503,47.695l1.437-57.91l5.675,0.517l75.039,6.821l2.276-0.236
			l0.476-6.185l0.366,6.097l101.895-12.568l-7.788,55.792l5.503,0.207l-5.503,0.256v6.165l41.273,63.288l-124.061-16.284
			l-1.583,0.433l-0.341,0.034L31.226,238.691l3.07-7.059l19.463-52.675l1.047-3.142"/>
		<linearGradient id="SVGID_7_" gradientUnits="userSpaceOnUse" x1="140.373" y1="207.9658" x2="266.9463" y2="207.9658">
			<stop  offset="0" style="stop-color:#F6A82A"/>
			<stop  offset="0.0069" style="stop-color:#F6A927"/>
			<stop  offset="0.0995" style="stop-color:#F7AF00"/>
			<stop  offset="0.1949" style="stop-color:#F7B200"/>
			<stop  offset="0.2965" style="stop-color:#F7B300"/>
			<stop  offset="0.6055" style="stop-color:#F3A432"/>
			<stop  offset="1" style="stop-color:#F1942E"/>
		</linearGradient>
		<linearGradient id="SVGID_8_" gradientUnits="userSpaceOnUse" x1="139.7192" y1="208.041" x2="267.9844" y2="208.041">
			<stop  offset="0" style="stop-color:#F6A82A"/>
			<stop  offset="0.0578" style="stop-color:#F6AB19"/>
			<stop  offset="0.1561" style="stop-color:#F6AE00"/>
			<stop  offset="0.261" style="stop-color:#F7AF00"/>
			<stop  offset="0.6055" style="stop-color:#F3A432"/>
			<stop  offset="1" style="stop-color:#F1942E"/>
		</linearGradient>
		<polygon fill="url(#SVGID_7_)" stroke="url(#SVGID_8_)" stroke-miterlimit="10" points="151.665,219.796 152.297,221.266 
			266.946,238.691 227.508,179.074 227.508,179.074 140.373,177.24 		"/>
		<linearGradient id="SVGID_9_" gradientUnits="userSpaceOnUse" x1="138.6094" y1="131.6729" x2="140.1064" y2="131.6729">
			<stop  offset="0" style="stop-color:#F6A82A"/>
			<stop  offset="0.0069" style="stop-color:#F6A927"/>
			<stop  offset="0.0995" style="stop-color:#F7AF00"/>
			<stop  offset="0.1949" style="stop-color:#F7B200"/>
			<stop  offset="0.2965" style="stop-color:#F7B300"/>
			<stop  offset="0.6055" style="stop-color:#F3A432"/>
			<stop  offset="1" style="stop-color:#F1942E"/>
		</linearGradient>
		<linearGradient id="SVGID_10_" gradientUnits="userSpaceOnUse" x1="138.0645" y1="131.6792" x2="140.6338" y2="131.6792">
			<stop  offset="0" style="stop-color:#F6A82A"/>
			<stop  offset="0.0578" style="stop-color:#F6AB19"/>
			<stop  offset="0.1561" style="stop-color:#F6AE00"/>
			<stop  offset="0.261" style="stop-color:#F7AF00"/>
			<stop  offset="0.6055" style="stop-color:#F3A432"/>
			<stop  offset="1" style="stop-color:#F1942E"/>
		</linearGradient>
		<polygon fill="url(#SVGID_9_)" stroke="url(#SVGID_10_)" stroke-miterlimit="10" points="139.822,129.222 138.98,129.31 
			138.609,134.124 140.106,133.957 		"/>
		<linearGradient id="SVGID_11_" gradientUnits="userSpaceOnUse" x1="149.5586" y1="226.5107" x2="149.5586" y2="226.5107">
			<stop  offset="0" style="stop-color:#F6A82A"/>
			<stop  offset="0.0069" style="stop-color:#F6A927"/>
			<stop  offset="0.0995" style="stop-color:#F7AF00"/>
			<stop  offset="0.1949" style="stop-color:#F7B200"/>
			<stop  offset="0.2965" style="stop-color:#F7B300"/>
			<stop  offset="0.6055" style="stop-color:#F3A432"/>
			<stop  offset="1" style="stop-color:#F1942E"/>
		</linearGradient>
		<linearGradient id="SVGID_12_" gradientUnits="userSpaceOnUse" x1="149.5586" y1="226.5107" x2="149.5586" y2="226.5107">
			<stop  offset="0" style="stop-color:#F6A82A"/>
			<stop  offset="0.0578" style="stop-color:#F6AB19"/>
			<stop  offset="0.1561" style="stop-color:#F6AE00"/>
			<stop  offset="0.261" style="stop-color:#F7AF00"/>
			<stop  offset="0.6055" style="stop-color:#F3A432"/>
			<stop  offset="1" style="stop-color:#F1942E"/>
		</linearGradient>
		<path fill="url(#SVGID_11_)" stroke="url(#SVGID_12_)" stroke-miterlimit="10" d="M149.559,226.511"/>
		<linearGradient id="SVGID_13_" gradientUnits="userSpaceOnUse" x1="148.6465" y1="221.6172" x2="148.6465" y2="221.6172">
			<stop  offset="0" style="stop-color:#F6A82A"/>
			<stop  offset="0.0069" style="stop-color:#F6A927"/>
			<stop  offset="0.0995" style="stop-color:#F7AF00"/>
			<stop  offset="0.1949" style="stop-color:#F7B200"/>
			<stop  offset="0.2965" style="stop-color:#F7B300"/>
			<stop  offset="0.6055" style="stop-color:#F3A432"/>
			<stop  offset="1" style="stop-color:#F1942E"/>
		</linearGradient>
		<linearGradient id="SVGID_14_" gradientUnits="userSpaceOnUse" x1="148.6465" y1="221.6172" x2="148.6465" y2="221.6172">
			<stop  offset="0" style="stop-color:#F6A82A"/>
			<stop  offset="0.0578" style="stop-color:#F6AB19"/>
			<stop  offset="0.1561" style="stop-color:#F6AE00"/>
			<stop  offset="0.261" style="stop-color:#F7AF00"/>
			<stop  offset="0.6055" style="stop-color:#F3A432"/>
			<stop  offset="1" style="stop-color:#F1942E"/>
		</linearGradient>
		<path fill="url(#SVGID_13_)" stroke="url(#SVGID_14_)" stroke-miterlimit="10" d="M148.646,221.617"/>
		<linearGradient id="SVGID_15_" gradientUnits="userSpaceOnUse" x1="58.2871" y1="176.1836" x2="58.5542" y2="176.1836">
			<stop  offset="0" style="stop-color:#F6A82A"/>
			<stop  offset="0.0069" style="stop-color:#F6A927"/>
			<stop  offset="0.0995" style="stop-color:#F7AF00"/>
			<stop  offset="0.1949" style="stop-color:#F7B200"/>
			<stop  offset="0.2965" style="stop-color:#F7B300"/>
			<stop  offset="0.6055" style="stop-color:#F3A432"/>
			<stop  offset="1" style="stop-color:#F1942E"/>
		</linearGradient>
		<linearGradient id="SVGID_16_" gradientUnits="userSpaceOnUse" x1="57.5332" y1="176.166" x2="59.2886" y2="176.166">
			<stop  offset="0" style="stop-color:#F6A82A"/>
			<stop  offset="0.0578" style="stop-color:#F6AB19"/>
			<stop  offset="0.1561" style="stop-color:#F6AE00"/>
			<stop  offset="0.261" style="stop-color:#F7AF00"/>
			<stop  offset="0.6055" style="stop-color:#F3A432"/>
			<stop  offset="1" style="stop-color:#F1942E"/>
		</linearGradient>
		<polygon fill="url(#SVGID_15_)" stroke="url(#SVGID_16_)" stroke-miterlimit="10" points="58.554,175.913 58.521,175.915 
			58.287,176.453 58.354,176.455 		"/>
	</g>
</g>
<g id="Layer_3">
	<path fill="#7A6A56" stroke="#FFFFFF" stroke-miterlimit="10" d="M184.563,75.374c0-24.568-19.916-44.484-44.484-44.484
		S95.595,50.806,95.595,75.374c0,7.476,1.853,14.517,5.112,20.702l-0.526,0.018l36.688,76.128l40.686-72.894
		c0.992-1.547,1.897-3.155,2.693-4.825l0.648-1.16l-0.125,0.004C183.201,87.849,184.563,81.772,184.563,75.374z M140.079,97.176
		c-11.397,0-20.638-9.24-20.638-20.637s9.24-20.638,20.638-20.638c11.396,0,20.637,9.24,20.637,20.638
		S151.476,97.176,140.079,97.176z"/>
	<polyline fill="#FFFFFF" stroke="#FFFFFF" stroke-miterlimit="10" points="60.25,175.75 57,175.75 57,174.25 62,174.5 	"/>
	<polyline fill="#FFFFFF" stroke="#FFFFFF" stroke-miterlimit="10" points="60.057,131.423 58.471,172.199 56.667,149.333 
		58,131.667 	"/>
	<polyline fill="#FFFFFF" stroke="#FFFFFF" stroke-miterlimit="10" points="51.667,194.667 49.667,194.667 55.333,174.667 57,152 
		59.333,153.333 59.742,175.406 	"/>
</g>
</svg>
