<svg id="Layer_1" data-name="Layer 1" xmlns="http://www.w3.org/2000/svg" viewBox="0 0 42.6 42.6"><defs><style>.cls-1{fill:#3e739d;}</style></defs><title>instagramicon</title><path id="instagram-circle-icon" class="cls-1" d="M2389.56,2096.74v2.62a0.76,0.76,0,0,1-.76.76h-2.56a0.76,0.76,0,0,1-.76-0.76v-2.62a0.76,0.76,0,0,1,.76-0.76h2.56A0.76,0.76,0,0,1,2389.56,2096.74Zm-9.81,12.9a3.49,3.49,0,1,0-3.49-3.49A3.49,3.49,0,0,0,2379.75,2109.64Zm21-3.6a21.3,21.3,0,1,1-21.3-21.3A21.3,21.3,0,0,1,2400.73,2106Zm-9-3.44h-7a6.13,6.13,0,1,1-10,0h-7v10.74a4.74,4.74,0,0,0,4.74,4.74H2387a4.74,4.74,0,0,0,4.74-4.74V2102.6Zm-12,8.27a4.72,4.72,0,1,0-4.72-4.72A4.73,4.73,0,0,0,2379.73,2110.87Zm12-12.13A4.74,4.74,0,0,0,2387,2094H2374v6h-1v-6h-0.67v6h-1v-5.85a4.7,4.7,0,0,0-.68.22V2100h-1v-5.1a4.73,4.73,0,0,0-2,3.87v3.11h7.59a6.13,6.13,0,0,1,8.73,0h7.63v-3.11h0Z" transform="translate(-2358.14 -2084.74)"/></svg>