<svg id="Layer_1" data-name="Layer 1" xmlns="http://www.w3.org/2000/svg" viewBox="0 0 44.59 44.59"><defs><style>.cls-1{fill:#274152;}</style></defs><title>tumblricon</title><path id="tumblr-circle-icon" class="cls-1" d="M2546.87,2084a22.3,22.3,0,1,0,22.29,22.3A22.3,22.3,0,0,0,2546.87,2084Zm8.64,34.4a15.9,15.9,0,0,1-3.1,1.13,13.22,13.22,0,0,1-3,.32,10.35,10.35,0,0,1-3.23-.46,6.93,6.93,0,0,1-2.4-1.32,4.77,4.77,0,0,1-1.38-1.82,7.89,7.89,0,0,1-.38-2.79v-9.35h-2.92v-3.8a7.82,7.82,0,0,0,2.68-1.46,7.3,7.3,0,0,0,1.79-2.29,10.37,10.37,0,0,0,.93-3.4h3.78v6.76h6.34v4.19h-6.34V2111a10.9,10.9,0,0,0,.25,3,2,2,0,0,0,.91,1.05,3.86,3.86,0,0,0,2,.53,7.29,7.29,0,0,0,4-1.32v4.2h0Z" transform="translate(-2524.57 -2084)"/></svg>