<svg id="Layer_1" data-name="Layer 1" xmlns="http://www.w3.org/2000/svg" viewBox="0 0 42.6 42.6"><defs><style>.cls-1{fill:#4dc8f1;}</style></defs><title>twittericon</title><path id="twitter-4-icon" class="cls-1" d="M2323.63,2084.74a21.3,21.3,0,1,0,21.3,21.3A21.3,21.3,0,0,0,2323.63,2084.74Zm10.71,17.63a14,14,0,0,1-21.61,12.47,9.93,9.93,0,0,0,7.31-2,4.94,4.94,0,0,1-4.61-3.43,5,5,0,0,0,2.23-.08,5,5,0,0,1-4-4.91,4.92,4.92,0,0,0,2.24.62,4.94,4.94,0,0,1-1.53-6.59,14,14,0,0,0,10.18,5.16,4.94,4.94,0,0,1,8.42-4.51,9.88,9.88,0,0,0,3.14-1.2,5,5,0,0,1-2.17,2.73,9.87,9.87,0,0,0,2.84-.78A10,10,0,0,1,2334.34,2102.37Z" transform="translate(-2302.33 -2084.74)"/></svg>