<svg id="Layer_1" data-name="Layer 1" xmlns="http://www.w3.org/2000/svg" viewBox="0 0 45.47 40.5"><defs><style>.cls-1{fill:#a67c52;}.cls-2{fill:#80d6ff;}</style></defs><title>brush icon</title><path class="cls-1" d="M2431.14,176.85a61.29,61.29,0,0,1-4.55,6.2c-2.36,3-4.84,5.95-7.34,8.85-1.37,1.58-2.74,3.16-4.15,4.7-1.9,2.07-3.83,4.1-5.9,6a11.78,11.78,0,0,1-3.09,2c-0.44.2-.86,0.44-1.29,0.67-0.21.12-.33,0.12-0.46-0.12a9.51,9.51,0,0,0-2.74-3.29,0.32,0.32,0,0,1-.1-0.51,23.28,23.28,0,0,1,2-3c0.84-1,1.76-1.83,2.68-2.7,1.39-1.31,2.84-2.55,4.29-3.79,1.21-1,2.45-2,3.7-3,1.94-1.55,3.88-3.09,5.84-4.6s3.69-2.81,5.58-4.16c1.43-1,2.84-2.05,4.34-3a4.31,4.31,0,0,1,1.21-.58v0.36Z" transform="translate(-2385.66 -176.49)"/><path class="cls-2" d="M2385.66,215.49a3.76,3.76,0,0,0,2-1,12.9,12.9,0,0,0,4-5.33,12.75,12.75,0,0,1,2.74-4.28,6.09,6.09,0,0,1,3.24-1.74,7.15,7.15,0,0,1,1.67,0,0.94,0.94,0,0,1,.46.2,8.64,8.64,0,0,1,3.17,4,0.63,0.63,0,0,1,0,.39,13.86,13.86,0,0,1-2.67,5.93,8.65,8.65,0,0,1-3.73,2.67,13,13,0,0,1-6.87.4,19,19,0,0,1-4-1.14v-0.07Z" transform="translate(-2385.66 -176.49)"/></svg>