<svg id="Layer_1" data-name="Layer 1" xmlns="http://www.w3.org/2000/svg" viewBox="0 0 153.17 92.07"><defs><style>.cls-1{fill:#ff7bac;stroke-width:3px;}.cls-1,.cls-13{stroke:#80d6ff;}.cls-1,.cls-11,.cls-13,.cls-4{stroke-miterlimit:10;}.cls-2{fill:#ff0;}.cls-3{fill:#662d91;}.cls-4{fill:#fff;stroke:#ccc;stroke-width:0.63px;}.cls-5{fill:#ff1d25;}.cls-6{fill:#ff931e;}.cls-7{fill:#7ac943;}.cls-8{fill:#3fa9f5;}.cls-9{fill:#754c24;}.cls-10{fill:gray;}.cls-11{fill:none;stroke:red;stroke-width:2.49px;}.cls-12,.cls-13{fill:#666;}.cls-13{stroke-width:1.4px;}</style></defs><title>colors and line weights</title><rect class="cls-1" x="35.08" y="35.08" width="22.8" height="22.8"/><rect class="cls-2" x="103.47" y="69.27" width="22.8" height="22.8"/><rect class="cls-3" x="0.88" y="69.27" width="22.8" height="22.8"/><rect class="cls-4" x="35.08" y="0.88" width="22.8" height="22.8"/><rect class="cls-5" x="0.88" y="35.08" width="22.8" height="22.8"/><rect class="cls-6" x="69.27" y="35.08" width="22.8" height="22.8"/><rect class="cls-7" x="69.27" y="69.27" width="22.8" height="22.8"/><rect class="cls-8" x="35.08" y="69.27" width="22.8" height="22.8"/><rect class="cls-4" x="0.88" y="0.88" width="22.8" height="22.8"/><rect class="cls-9" x="103.47" y="35.08" width="22.8" height="22.8"/><rect x="103.47" y="0.88" width="22.8" height="22.8"/><rect class="cls-10" x="69.27" y="0.88" width="22.8" height="22.8"/><line class="cls-11" x1="0.88" y1="23.68" x2="23.68" y2="0.88"/><circle class="cls-12" cx="147.07" cy="21.88" r="1.53"/><circle class="cls-13" cx="147.07" cy="31.09" r="2.67"/><circle class="cls-12" cx="147.07" cy="42.41" r="3.82"/><circle class="cls-12" cx="147.07" cy="56.53" r="4.96"/><circle class="cls-12" cx="147.07" cy="72.76" r="6.11"/></svg>