<svg id="Layer_1" data-name="Layer 1" xmlns="http://www.w3.org/2000/svg" viewBox="0 0 29.33 29.33"><defs><style>.cls-1{fill:#fff;}</style></defs><title>info icon white</title><path class="cls-1" d="M2341.37,1339.31A14.66,14.66,0,1,0,2356,1354,14.66,14.66,0,0,0,2341.37,1339.31Zm-1.74,24.37a2.94,2.94,0,0,1-1.91-.56,2,2,0,0,1-.64-1.6,8,8,0,0,1,.53-2.16l1.64-4.71a2.93,2.93,0,0,0,.19-0.71,0.33,0.33,0,0,0-.07-0.24c-0.05-.05-0.13.22-0.24,0.22-0.46,0-1,1.07-1.64,2.07h-1.31c1.17-2,2.83-4.11,5-4.11a2.56,2.56,0,0,1,1.76.4,1.77,1.77,0,0,1,.63,1.45,7.42,7.42,0,0,1-.56,2.22l-1.58,4.3a4.87,4.87,0,0,0-.34,1.14,0.29,0.29,0,0,0,.09.23,0.36,0.36,0,0,0,.25.08,1.37,1.37,0,0,0,.91-0.57,6.16,6.16,0,0,1,.84-1.13h1.38C2343.35,1363,2341.72,1363.68,2339.63,1363.68Zm5.17-15.73a2.12,2.12,0,1,1,.63-1.5A2,2,0,0,1,2344.8,1347.95Z" transform="translate(-2326.71 -1339.31)"/></svg>