<svg id="Layer_1" data-name="Layer 1" xmlns="http://www.w3.org/2000/svg" viewBox="0 0 29.34 29.34"><defs><style>.cls-1{fill:#80d6ff;}</style></defs><title>info icon</title><path class="cls-1" d="M2340.43,508.64a14.67,14.67,0,1,0,14.67,14.67A14.67,14.67,0,0,0,2340.43,508.64Zm-1.74,24.71a3,3,0,0,1-1.91-.72,2.14,2.14,0,0,1-.64-1.68,8.19,8.19,0,0,1,.53-2.21l1.64-4.74a3,3,0,0,0,.19-0.72,0.34,0.34,0,0,0-.07-0.24,0.53,0.53,0,0,0-.24.05c-0.46,0-1,1.9-1.64,1.9h-1.31c1.17-2,2.83-3.94,5-3.94a2.57,2.57,0,0,1,1.76.49,1.86,1.86,0,0,1,.63,1.49,7.52,7.52,0,0,1-.56,2.24l-1.58,4.31a4.89,4.89,0,0,0-.34,1.14,0.3,0.3,0,0,0,.09.23,0.36,0.36,0,0,0,.25.08,0.86,0.86,0,0,0,.91-0.24,2.44,2.44,0,0,1,.84-0.8h1.38C2342.41,532,2340.78,533.36,2338.69,533.36Zm5.18-16.07a2.12,2.12,0,1,1,.63-1.5A2.05,2.05,0,0,1,2343.87,517.28Z" transform="translate(-2325.76 -508.64)"/></svg>