<svg id="Layer_1" data-name="Layer 1" xmlns="http://www.w3.org/2000/svg" viewBox="0 0 42 38.83"><defs><style>.cls-1{fill:#80d6ff;}.cls-2{fill:none;stroke:#80d6ff;stroke-miterlimit:10;stroke-width:4px;}</style></defs><title>upload icon</title><path class="cls-1" d="M2408.51,247.3a0.42,0.42,0,0,0-.59,0l-12.84,12.62c-0.16.16-.11,0.08,0.12,0.08h8.12a1.29,1.29,0,0,1,.68.86v17.07c0,0.23-.07.07,0.16,0.07h8.12c0.23,0,.72.16,0.72-0.07V260.86c0-.23-0.11-0.86.12-0.86h8.12c0.23,0,.29.08,0.12-0.08Z" transform="translate(-2387 -247.17)"/><path class="cls-2" d="M2389,264v19.48a0.48,0.48,0,0,0,.4.52h37.16a0.52,0.52,0,0,0,.45-0.52V264" transform="translate(-2387 -247.17)"/></svg>