<svg id="Layer_1" data-name="Layer 1" xmlns="http://www.w3.org/2000/svg" viewBox="0 0 37.36 33.04"><defs><style>.cls-1{fill:#fff;}</style></defs><title>home icon</title><path class="cls-1" d="M2290.41,32c0.33,0,.38-0.16.12-0.36L2284.41,27a1.28,1.28,0,0,1-.41-0.95V19.53a0.67,0.67,0,0,0-.72-0.53h-4.16c-0.33,0-.12.2-0.12,0.53v2.52a0.43,0.43,0,0,1-.71.24l-5.7-4.19a0.94,0.94,0,0,0-1,0L2253.5,31.64c-0.26.2-.24,0.36,0.09,0.36h3.56a0.86,0.86,0,0,1,.84.59V50.41c0,0.33,0,.59.34,0.59h9.2a0.49,0.49,0,0,0,.45-0.59V37.64a0.77,0.77,0,0,1,.73-0.64H2275a1.17,1.17,0,0,1,1,.64V50.41c0,0.33-.17.59,0.16,0.59h9.5c0.33,0,.34-0.27.34-0.59V32.59a0.86,0.86,0,0,1,.84-0.59h3.56Z" transform="translate(-2253.33 -17.96)"/></svg>