<?xml version="1.0" encoding="utf-8"?>
<!-- Generator: Adobe Illustrator 18.0.0, SVG Export Plug-In . SVG Version: 6.00 Build 0)  -->
<!DOCTYPE svg PUBLIC "-//W3C//DTD SVG 1.1//EN" "http://www.w3.org/Graphics/SVG/1.1/DTD/svg11.dtd">
<svg version="1.1" id="图层_1" xmlns="http://www.w3.org/2000/svg" xmlns:xlink="http://www.w3.org/1999/xlink" x="0px" y="0px"
	 viewBox="0 0 720 720" enable-background="new 0 0 720 720" xml:space="preserve">
<path fill="none" stroke="#FFFFFF" stroke-width="10" stroke-miterlimit="10" d="M323.5,308.5c-6.8-15.3-17.1-36.9-17.1-36.9
	l-39.2,18.9c0,0-10.6,2.1-8-8.6s-0.9-18.3-4.4-22.1s-12.4-13.7-29.6-4.1s-16.9,22.8-16.9,22.8s-0.9,8.7,7,16.2
	c8,7.5,12.2,8.2,4.7,15.5c-7.5,7.3-45.5,22.3-45.5,22.3l22.3,45.8c0,0,1.2,6.8-9.4,8.4c-10.6,1.6-21.4-0.9-23.7,18.3
	c-2.3,19.2,17.4,30,17.4,30s8.7,4.5,14.1,2.6c5.4-1.9,7.5-9.6,7.5-9.6s6.1-9.2,12.9-1.4l18.5,39l40.1-17.6"/>
<ellipse fill="#FFFFFF" cx="323.6" cy="308.7" rx="4.9" ry="5.1"/>
<ellipse fill="#FFFFFF" cx="273.8" cy="448.2" rx="4.8" ry="5"/>
<text transform="matrix(1 0 0 1 230.4371 393.9541)" fill="#FFFFFF" stroke="#FFFFFF" stroke-width="2" stroke-miterlimit="10" font-family="'QuicksandBold-Regular'" font-size="61.9622">JIGDRAW</text>
<path fill="none" stroke="#80CDF2" stroke-width="10" stroke-miterlimit="10" d="M318.8,307.4"/>
</svg>
