<svg id="Layer_1" data-name="Layer 1" xmlns="http://www.w3.org/2000/svg" viewBox="0 0 111.43 51.89"><defs><style>.cls-1{isolation:isolate;font-size:20.35px;font-family:Quicksand;font-weight:700;}.cls-1,.cls-4{fill:#fff;}.cls-2{letter-spacing:-1px;}.cls-3,.cls-5{fill:none;stroke-miterlimit:10;stroke-width:2.3px;}.cls-3{stroke:#fff;}.cls-5{stroke:#80cdf2;}</style></defs><title>new logo</title><text class="cls-1" transform="translate(15.7 35.6)">JIG<tspan x="34.86" y="0">D</tspan><tspan x="49.09" y="0">R</tspan><tspan class="cls-2" x="61.81" y="0">A</tspan><tspan x="73.3" y="0">W</tspan></text><path class="cls-3" d="M2669.67,855.07c-1.56-3.52-3.93-8.49-3.93-8.49l-9,4.35s-2.44.48-1.84-2a5.47,5.47,0,0,0-1-5.09c-0.81-.87-2.85-3.15-6.81-0.94s-3.89,5.25-3.89,5.25a4.84,4.84,0,0,0,1.61,3.73c1.84,1.73,2.81,1.89,1.08,3.57s-10.47,5.13-10.47,5.13l5.13,10.54s0.28,1.56-2.16,1.93-4.92-.21-5.45,4.21,4,6.9,4,6.9,2,1,3.24.6a3.52,3.52,0,0,0,1.73-2.21s1.4-2.12,3-.32l4.26,9,9.23-4" transform="translate(-2631.71 -840.83)"/><ellipse class="cls-4" cx="37.99" cy="14.28" rx="1.13" ry="1.17"/><ellipse class="cls-4" cx="26.53" cy="46.38" rx="1.1" ry="1.15"/><path class="cls-5" d="M2668.59,854.81" transform="translate(-2631.71 -840.83)"/></svg>