<?xml version="1.0" encoding="utf-8"?>
<!-- Generator: Adobe Illustrator 18.0.0, SVG Export Plug-In . SVG Version: 6.00 Build 0)  -->
<!DOCTYPE svg PUBLIC "-//W3C//DTD SVG 1.1//EN" "http://www.w3.org/Graphics/SVG/1.1/DTD/svg11.dtd">
<svg version="1.1" xmlns="http://www.w3.org/2000/svg" xmlns:xlink="http://www.w3.org/1999/xlink" x="0px" y="0px"
	 viewBox="0 0 284.8 284.8" enable-background="new 0 0 284.8 284.8" xml:space="preserve">
<g id="图层_1" display="none">
	<path display="inline" fill="#80CDF2" d="M98.6,15.5L74.5,27.1c0,0-7,1.4-5.2-5.6c1.7-7-0.6-12-2.9-14.6s-8.2-9-19.5-2.7
		s-11.1,15-11.1,15s-0.6,5.7,4.6,10.7s8,5.4,3.1,10.2s-30,14.7-30,14.7l14.7,30.1c0,0,0.8,4.5-6.2,5.6c-7,1.1-14.1-0.6-15.6,12.1
		s11.4,19.8,11.4,19.8s5.7,2.9,9.3,1.7s4.9-6.3,4.9-6.3s4-6,8.5-0.9l12.2,25.7l26.4-11.6c0,0,5.1-9.2-5.4-11.8s-2.3-25.1,9-25.9
		c11.3-0.7,20.7,5.5,18.7,12.1s4.3,9.5,4.3,9.5s3,0.7,4.9-0.1c1.9-0.9,28.3-13.5,28.3-13.5L126.4,72c0,0-5.9-3.3-11.5,2.7
		c-5.6,6-11.9,5.3-15.5,1.9c-3.6-3.4-11.9-12.1-7.8-23c4.2-10.9,12.4-6,12.4-6s8.6,0.9,6.6-7.2L99,16.4L98.6,15.5z"/>
	<path display="inline" fill="#80CDF2" d="M111.6,39"/>
	<path display="inline" fill="#80CDF2" d="M108.5,38.2"/>
</g>
<g id="图层_2">
	<path fill="none" stroke="#FFFFFF" stroke-width="10" stroke-miterlimit="10" d="M210.8,92.3c-6.8-15.3-17.1-36.9-17.1-36.9
		l-39.2,18.9c0,0-10.6,2.1-8-8.6c2.7-10.6-0.9-18.3-4.4-22.1s-12.4-13.7-29.6-4.1S95.6,62.3,95.6,62.3s-0.9,8.7,7,16.2
		c8,7.5,12.2,8.2,4.7,15.5c-7.5,7.3-45.5,22.3-45.5,22.3L84.1,162c0,0,1.2,6.8-9.4,8.4c-10.6,1.6-21.4-0.9-23.7,18.3
		s17.4,30,17.4,30s8.7,4.5,14.1,2.6c5.4-1.9,7.5-9.6,7.5-9.6s6.1-9.2,12.9-1.4l18.5,39l40.1-17.6"/>
	<ellipse fill="#FFFFFF" cx="210.9" cy="92.4" rx="4.9" ry="5.1"/>
	<ellipse fill="#FFFFFF" cx="161.1" cy="231.9" rx="4.8" ry="5"/>
	<path fill="none" stroke="#80CDF2" stroke-width="10" stroke-miterlimit="10" d="M206,91.1"/>
</g>
</svg>
