<?xml version="1.0" encoding="utf-8"?>
<!-- Generator: Adobe Illustrator 18.0.0, SVG Export Plug-In . SVG Version: 6.00 Build 0)  -->
<!DOCTYPE svg PUBLIC "-//W3C//DTD SVG 1.1//EN" "http://www.w3.org/Graphics/SVG/1.1/DTD/svg11.dtd">
<svg version="1.1" id="图层_1" xmlns="http://www.w3.org/2000/svg" xmlns:xlink="http://www.w3.org/1999/xlink" x="0px" y="0px"
	 viewBox="0 0 360 360" enable-background="new 0 0 360 360" xml:space="preserve">
<path fill="none" stroke="#FFFFFF" stroke-width="30" stroke-miterlimit="10" d="M107.4,262.7c0,0,6.7,43-48.4,52.9
	c0,0,128.9-5.2,123.9-52.6l89.9,0.3c25.3,0,45.9-20.5,45.9-45.9V114.2c0-25.3-20.5-45.9-45.9-45.9H93.1c-25.3,0-45.9,20.5-45.9,45.9
	v103.2c0,22.9,16.7,41.8,38.7,45.3H107.4z"/>
<line fill="none" stroke="#FFFFFF" stroke-width="30" stroke-miterlimit="10" x1="99.9" y1="116.5" x2="261.3" y2="116.5"/>
<line fill="none" stroke="#FFFFFF" stroke-width="30" stroke-miterlimit="10" x1="99.9" y1="164.9" x2="261.3" y2="164.9"/>
<line fill="none" stroke="#FFFFFF" stroke-width="30" stroke-miterlimit="10" x1="99.9" y1="213.3" x2="261.3" y2="213.3"/>
<path fill="#80CDF2" d="M167.8,267.9c0,0,5-20.9,28.2-20c23.2,0.8,7.3-13,7.3-13l-46.1,2.6l4.8,30.5H167.8z"/>
</svg>
