<?xml version="1.0" encoding="utf-8"?>
<!-- Generator: Adobe Illustrator 18.0.0, SVG Export Plug-In . SVG Version: 6.00 Build 0)  -->
<!DOCTYPE svg PUBLIC "-//W3C//DTD SVG 1.1//EN" "http://www.w3.org/Graphics/SVG/1.1/DTD/svg11.dtd">
<svg version="1.1" id="图层_1" xmlns="http://www.w3.org/2000/svg" xmlns:xlink="http://www.w3.org/1999/xlink" x="0px" y="0px"
	 viewBox="0 0 360 360" enable-background="new 0 0 360 360" xml:space="preserve">
<path fill="#80CDF2" d="M310.9,101.8v178.4c0,16.9-13.7,30.7-30.7,30.7H79.7c-16.9,0-30.7-13.7-30.7-30.7V79.7
	c0-16.9,13.7-30.7,30.7-30.7h177.1C256.8,49.1,292,68.5,310.9,101.8z"/>
<path fill="#FFFFFF" d="M239.9,150.7H109.4c-6.1,0-11-4.9-11-11V70.5c0-6.1,4.9-11,11-11h130.5c6.1,0,11,4.9,11,11v69.1
	C251,145.7,246,150.7,239.9,150.7z"/>
<rect x="200.5" y="69.3" fill="#80CDF2" width="28.4" height="69.9"/>
<path fill="#FFFFFF" d="M270.1,301.2H90c-6.3,0-11.3-5.1-11.3-11.3v-98.6c0-6.3,5.1-11.3,11.3-11.3h180.1c6.3,0,11.3,5.1,11.3,11.3
	v98.6C281.4,296.2,276.3,301.2,270.1,301.2z"/>
</svg>
