<?xml version="1.0" encoding="iso-8859-1"?>
<!DOCTYPE svg PUBLIC "-//W3C//DTD SVG 1.1//EN" "http://www.w3.org/Graphics/SVG/1.1/DTD/svg11.dtd">
<svg 
 version="1.1" xmlns="http://www.w3.org/2000/svg" xmlns:xlink="http://www.w3.org/1999/xlink" x="0px" y="0px" width="512px"
	 height="512px" viewBox="0 0 512 512" style="enable-background:new 0 0 512 512;" xml:space="preserve"
><g fill="#8f8f8f" id="afcae5a789ccd549f9c6e2a2f80c11ed"><g fill="#8f8f8f"></g><path style="display: inline;" d="M234.708,447.625c0,17.641-14.299,31.937-31.938,31.937s-31.938-14.296-31.938-31.937
		s14.299-31.938,31.938-31.938S234.708,429.984,234.708,447.625z M394.396,415.687c-17.639,0-31.938,14.298-31.938,31.938
		s14.299,31.937,31.938,31.937s31.938-14.296,31.938-31.937S412.034,415.687,394.396,415.687z M303.48,160.188H140.308
		l-15.437-85.166l-7.681-42.583H0.5v42.583h79.821l57.393,319.374H303.48h165.765L511.5,160.188H303.48z"></path></g></svg>