<?xml version="1.0" encoding="iso-8859-1"?>
<!DOCTYPE svg PUBLIC "-//W3C//DTD SVG 1.1//EN" "http://www.w3.org/Graphics/SVG/1.1/DTD/svg11.dtd">
<svg 
 version="1.1" xmlns="http://www.w3.org/2000/svg" xmlns:xlink="http://www.w3.org/1999/xlink" x="0px" y="0px" width="512px"
	 height="512px" viewBox="0 0 512 512" enable-background="new 0 0 512 512" xml:space="preserve"
><g id="b75708d097f2188dff6617b0f00f1c09"><g></g><g fill="#b1e6d6"><path display="inline" d="M511.5,75.025v21.288c0,23.421-19.162,42.583-42.583,42.583H43.083
		c-23.421,0-42.583-19.163-42.583-42.583V75.025c0-23.421,19.163-42.583,42.583-42.583h425.833
		C492.338,32.441,511.5,51.604,511.5,75.025z M468.917,202.771H43.083c-23.421,0-42.583,19.162-42.583,42.583v21.288
		c0,23.421,19.163,42.583,42.583,42.583h425.833c23.421,0,42.583-19.162,42.583-42.583v-21.288
		C511.5,221.933,492.338,202.771,468.917,202.771z M468.917,373.104H43.083c-23.421,0-42.583,19.162-42.583,42.583v21.287
		c0,23.421,19.163,42.584,42.583,42.584h425.833c23.421,0,42.583-19.163,42.583-42.584v-21.287
		C511.5,392.267,492.338,373.104,468.917,373.104z"></path></g></g></svg>