<svg id="Layer_1" data-name="Layer 1" xmlns="http://www.w3.org/2000/svg" viewBox="0 0 103.39 103.39"><defs><style>.cls-1{fill:#80d6ff;}.cls-2{fill:none;stroke:#80d6ff;stroke-miterlimit:10;stroke-width:1.59px;}</style></defs><title>canvasdivision8</title><path class="cls-1" d="M1606.94,399.74a7.88,7.88,0,0,1,7.88-7.73,8,8,0,0,1,5,1.67,1.23,1.23,0,0,1-1.5,2,5.35,5.35,0,0,0-3.46-1.18A5.68,5.68,0,0,0,1611,396a5.3,5.3,0,0,0-1.57,3.74,5.22,5.22,0,0,0,1.57,3.74,5.68,5.68,0,0,0,3.86,1.55,5.4,5.4,0,0,0,3.46-1.18,1.3,1.3,0,0,1,1.72.24,1.27,1.27,0,0,1-.21,1.72,8,8,0,0,1-5,1.67A7.85,7.85,0,0,1,1606.94,399.74Z" transform="translate(-1594.49 -346.85)"/><path class="cls-1" d="M1628.17,407.47a4.49,4.49,0,0,1-4.46-4.47v-5.13a1.16,1.16,0,0,1,1.14-1.14,1.15,1.15,0,0,1,1.14,1.14V403a2.17,2.17,0,0,0,2.19,2.19,2.23,2.23,0,0,0,2.25-2.19v-5.13a1.13,1.13,0,0,1,1.12-1.14,1.19,1.19,0,0,1,1.16,1.14V403A4.53,4.53,0,0,1,1628.17,407.47Z" transform="translate(-1594.49 -346.85)"/><path class="cls-1" d="M1636.57,404.4a1.12,1.12,0,0,1,1.61-.17,3.94,3.94,0,0,0,2.36.95,2.86,2.86,0,0,0,1.46-.41,0.88,0.88,0,0,0,.39-0.64,0.32,0.32,0,0,0-.06-0.21,0.65,0.65,0,0,0-.28-0.26,5,5,0,0,0-1.72-.6h0a8.28,8.28,0,0,1-1.87-.56,3.59,3.59,0,0,1-1.48-1.25,2.6,2.6,0,0,1-.37-1.35,3,3,0,0,1,1.27-2.36,4.62,4.62,0,0,1,2.64-.79,5.52,5.52,0,0,1,3.22,1.18,1.19,1.19,0,0,1,.34,1.59,1.14,1.14,0,0,1-1.59.3,3.68,3.68,0,0,0-2-.79,2.18,2.18,0,0,0-1.29.39,0.65,0.65,0,0,0-.34.49,0.23,0.23,0,0,0,0,.17,0.58,0.58,0,0,0,.24.21,4.37,4.37,0,0,0,1.57.52l0,0h0a7.76,7.76,0,0,1,2,.62,3.33,3.33,0,0,1,1.52,1.27,2.78,2.78,0,0,1,.41,1.42,3.1,3.1,0,0,1-1.35,2.49,4.89,4.89,0,0,1-2.79.86,6.23,6.23,0,0,1-3.82-1.48A1.15,1.15,0,0,1,1636.57,404.4Z" transform="translate(-1594.49 -346.85)"/><path class="cls-1" d="M1652.8,397.92a1.21,1.21,0,0,1-1.2,1.18h-0.54v6a1.18,1.18,0,0,1,1.18,1.2,1.16,1.16,0,0,1-1.18,1.18,2.39,2.39,0,0,1-2.38-2.38v-6h-0.62a1.18,1.18,0,0,1-1.18-1.18,1.16,1.16,0,0,1,1.18-1.18h0.62v-3.11a1.18,1.18,0,0,1,1.2-1.18,1.16,1.16,0,0,1,1.18,1.18v3.11h0.54A1.2,1.2,0,0,1,1652.8,397.92Z" transform="translate(-1594.49 -346.85)"/><path class="cls-1" d="M1657.23,405.9a5.35,5.35,0,0,1-1.48-3.78,5.54,5.54,0,0,1,1.48-3.76,5,5,0,0,1,3.69-1.63,4.75,4.75,0,0,1,3.59,1.63,5.36,5.36,0,0,1,1.5,3.76,5.19,5.19,0,0,1-1.5,3.78,4.75,4.75,0,0,1-3.59,1.63A5,5,0,0,1,1657.23,405.9Zm0.86-3.78a3.47,3.47,0,0,0,.77,2.28,2.9,2.9,0,0,0,2.06.79,2.81,2.81,0,0,0,2-.79,3.3,3.3,0,0,0,.84-2.28,3.23,3.23,0,0,0-.84-2.23,3,3,0,0,0-2-.82,3.12,3.12,0,0,0-2.06.82A3.39,3.39,0,0,0,1658.09,402.13Z" transform="translate(-1594.49 -346.85)"/><path class="cls-1" d="M1678.64,401.18v5.15a1.15,1.15,0,0,1-1.14,1.14,1.18,1.18,0,0,1-1.16-1.14v-5.15a2.19,2.19,0,0,0-4.38.06v5.09s0,0.11,0,.15v0.06a0.36,0.36,0,0,1-.06.13v0.11a1.25,1.25,0,0,1-1.07.69l-0.21,0a1.17,1.17,0,0,1-.92-1.12V397.9a1.14,1.14,0,0,1,1.14-1.16,1.09,1.09,0,0,1,1,.64,4.52,4.52,0,0,1,2.3-.64,4.58,4.58,0,0,0,6.74,0,4.48,4.48,0,0,1,4.47,4.51v5.09a1.15,1.15,0,0,1-1.14,1.14,1.16,1.16,0,0,1-1.16-1.14v-5.09a2.2,2.2,0,0,0-2.17-2.21A2.23,2.23,0,0,0,1678.64,401.18Z" transform="translate(-1594.49 -346.85)"/><rect class="cls-2" x="1595.28" y="347.65" width="101.8" height="101.8" transform="translate(-346.85 1697.88) rotate(-90)"/></svg>